# xmcd CD database file
#
# Track frame offsets:
#	150
#	10007
#	21652
#	30827
#	41285
#	51497
#	60840
#	74977
#	87622
#	97457
#	108065
#	120000
#	130950
#	143225
#	152515
#	164040
#	173847
#	187740
#	198167
#	206260
#	219912
#	230800
#	241542
#	252065
#	265232
#	277537
#	290735
#	300732
#	310360
#	322725
#	330907
#
# Disc length: 4561 seconds
#
# Revision: 5
# Processed by: cddbd v1.5.2PL0 Copyright (c) Steve Scherf et al.
# Submitted via: CDex 1.70beta2
#
DISCID=a511cf1f
DTITLE=Ned Miller - From A Jack To A King
DYEAR=1991
DGENRE=Country
TTITLE0=From A Jack To A King
TTITLE1=Parade Of Broken Hearts
TTITLE2=Turn Back
TTITLE3=Lights In The Street
TTITLE4=Old Mother Nature And Old Father Time
TTITLE5=Roll O´ Rollin´ Stone
TTITLE6=One Among The Many
TTITLE7=The Man Behind The Gun
TTITLE8=Another Fool Like Me
TTITLE9=Magic Moon
TTITLE10=Sunday Morning Tears
TTITLE11=Big Love
TTITLE12=Old Restless Ocean
TTITLE13=Invisible Tears
TTITLE14=Do What You Do Do Well
TTITLE15=Dusty Guitar
TTITLE16=Just Before Dawn
TTITLE17=Go On Back You Fool
TTITLE18=Dark Moon
TTITLE19=Cold Gray Bars
TTITLE20=My Heart Waits At The Door
TTITLE21=The Big Lie
TTITLE22=Heart Without A Heartache
TTITLE23=Billy Carino
TTITLE24=Cry Of The Wild Goose
TTITLE25=Long Shadow
TTITLE26=Mona Lisa
TTITLE27=Stage Coach
TTITLE28=You Belong To My Heart
TTITLE29=King Of Fools
TTITLE30=Girl Across The Table
EXTD=YEAR: 1991
EXTT0=
EXTT1=
EXTT2=
EXTT3=
EXTT4=
EXTT5=
EXTT6=
EXTT7=
EXTT8=
EXTT9=
EXTT10=
EXTT11=
EXTT12=
EXTT13=
EXTT14=
EXTT15=
EXTT16=
EXTT17=
EXTT18=
EXTT19=
EXTT20=
EXTT21=
EXTT22=
EXTT23=
EXTT24=
EXTT25=
EXTT26=
EXTT27=
EXTT28=
EXTT29=
EXTT30=
PLAYORDER=
